<?xml version="1.0" encoding="UTF-8" standalone="no"?>
<!-- Created with Inkscape (http://www.inkscape.org/) -->

<svg
     version="1.1"
     id="svg868"
     width="48.000011"
     height="48"
     viewBox="0 0 48.000011 48"
     xmlns="http://www.w3.org/2000/svg"
     xmlns:svg="http://www.w3.org/2000/svg">
    <defs
         id="defs872" />
    <g
         id="g874"
         transform="translate(-86.042996,-0.04194936)">
        <path
             style="fill:#000000;stroke-width:0.999999"
             d="m 109.42047,47.958473 c -0.15259,-0.05712 -0.39415,-0.176851 -0.53681,-0.266079 -0.39758,-0.248671 -15.907335,-15.814931 -16.062073,-16.120585 -0.07935,-0.156741 -0.150163,-0.509086 -0.170213,-0.846916 -0.04427,-0.745936 0.149904,-1.236589 0.676869,-1.710376 0.710865,-0.639129 -0.775095,-0.5869 16.697657,-0.5869 14.46043,0 15.56167,0.0091 15.95018,0.131548 0.53611,0.168997 1.02648,0.602033 1.28875,1.138085 0.1833,0.374665 0.20194,0.485374 0.17063,1.013384 -0.0208,0.350438 -0.0907,0.702496 -0.17104,0.861175 -0.21401,0.422744 -15.78653,15.973666 -16.24662,16.224071 -0.45456,0.247409 -1.17485,0.320727 -1.59733,0.162593 z M 94.069837,19.553348 c -0.492129,-0.164053 -0.997618,-0.624644 -1.248658,-1.13775 -0.183306,-0.374665 -0.201947,-0.485373 -0.170629,-1.013383 0.02073,-0.349402 0.09081,-0.702965 0.170716,-0.861175 0.07456,-0.147623 3.695246,-3.830099 8.045974,-8.1832788 8.84133,-8.8463148 8.30155,-8.36494778 9.29115,-8.2855123 0.31969,0.02566199 0.60753,0.10762413 0.85941,0.24471929 0.46009,0.25040457 16.03261,15.80132681 16.24662,16.22407181 0.0803,0.158679 0.15025,0.510737 0.17104,0.861175 0.0313,0.52801 0.0127,0.638718 -0.17063,1.013383 -0.11319,0.231339 -0.35741,0.554078 -0.54273,0.717201 -0.68066,0.599134 0.72674,0.552996 -16.70707,0.547701 C 95.962684,19.6762 94.40111,19.66378 94.069837,19.553348 Z"
             id="path1093" />
    </g>
</svg>
